HIERARCHY
ROOT Hips
{
 OFFSET 0.000000 0.000000 0.000000
 CHANNELS 6 Xposition Yposition Zposition Yrotation Xrotation Zrotation
 JOINT Chest
 {
  OFFSET 0.000000 9.585900 0.002600
  CHANNELS 3 Yrotation Xrotation Zrotation
  JOINT Chest2
  {
   OFFSET 0.000000 9.601200 -0.005300
   CHANNELS 3 Yrotation Xrotation Zrotation
   JOINT Chest3
   {
    OFFSET 0.000000 9.561800 0.000000
    CHANNELS 3 Yrotation Xrotation Zrotation
    JOINT Chest4
    {
     OFFSET 0.000000 9.552100 0.000000
     CHANNELS 3 Yrotation Xrotation Zrotation
     JOINT Neck
     {
      OFFSET 0.000000 14.453000 0.000000
      CHANNELS 3 Yrotation Xrotation Zrotation
      JOINT Head
      {
       OFFSET 0.000000 8.936500 -0.011300
       CHANNELS 3 Yrotation Xrotation Zrotation
       End Site
       {
        OFFSET 0.000000 17.073600 -0.006000
       }
      }
     }
     JOINT RightCollar
     {
      OFFSET -2.921100 9.558500 0.000000
      CHANNELS 3 Yrotation Xrotation Zrotation
      JOINT RightShoulder
      {
       OFFSET -13.519700 0.000000 0.000000
       CHANNELS 3 Yrotation Xrotation Zrotation
       JOINT RightElbow
       {
        OFFSET 0.000000 -29.696600 0.000000
        CHANNELS 3 Yrotation Xrotation Zrotation
        JOINT RightWrist
        {
         OFFSET 0.000000 -24.004700 0.000000
         CHANNELS 3 Yrotation Xrotation Zrotation
         End Site
         {
          OFFSET 0.000000 -17.728500 0.000000
         }
        }
       }
      }
     }
     JOINT LeftCollar
     {
      OFFSET 2.921100 9.558500 0.000000
      CHANNELS 3 Yrotation Xrotation Zrotation
      JOINT LeftShoulder
      {
       OFFSET 13.519700 0.000000 0.000000
       CHANNELS 3 Yrotation Xrotation Zrotation
       JOINT LeftElbow
       {
        OFFSET 0.000000 -29.696600 0.000000
        CHANNELS 3 Yrotation Xrotation Zrotation
        JOINT LeftWrist
        {
         OFFSET 0.000000 -24.004700 0.000000
         CHANNELS 3 Yrotation Xrotation Zrotation
         End Site
         {
          OFFSET 0.000000 -17.728500 0.000000
         }
        }
       }
      }
     }
    }
   }
  }
 }
 JOINT RightHip
 {
  OFFSET -7.771700 -0.012900 -0.001300
  CHANNELS 3 Yrotation Xrotation Zrotation
  JOINT RightKnee
  {
   OFFSET 0.000000 -40.869800 0.001200
   CHANNELS 3 Yrotation Xrotation Zrotation
   JOINT RightAnkle
   {
    OFFSET 0.000000 -39.717900 0.002100
    CHANNELS 3 Yrotation Xrotation Zrotation
    JOINT RightToe
    {
     OFFSET 0.000000 -4.965400 11.033500
     CHANNELS 3 Yrotation Xrotation Zrotation
     End Site
     {
      OFFSET 0.000000 -1.423100 5.872300
     }
    }
   }
  }
 }
 JOINT LeftHip
 {
  OFFSET 7.771700 -0.012900 -0.001300
  CHANNELS 3 Yrotation Xrotation Zrotation
  JOINT LeftKnee
  {
   OFFSET 0.000000 -40.869800 0.001200
   CHANNELS 3 Yrotation Xrotation Zrotation
   JOINT LeftAnkle
   {
    OFFSET 0.000000 -39.717900 0.002100
    CHANNELS 3 Yrotation Xrotation Zrotation
    JOINT LeftToe
    {
     OFFSET 0.000000 -4.965400 11.033500
     CHANNELS 3 Yrotation Xrotation Zrotation
     End Site
     {
      OFFSET 0.000000 -1.423100 5.872300
     }
    }
   }
  }
 }
}
MOTION
Frames: 12
Frame Time: 0.008333
-8.098628 53.443941 25.921411 178.237949 -31.329763 -11.909018 0.892632 13.169690 6.735609 0.223114 7.560132 2.493706 0.315465 9.421132 3.114740 0.206342 7.526326 2.479626 5.475960 22.222016 -0.860066 6.100401 -1.829497 -2.219138 -0.873630 1.218139 -2.534791 -13.504067 -6.281972 5.226231 66.718396 -79.121261 -48.551849 12.966873 -3.963178 -16.579442 -10.919243 2.896423 -3.493344 6.402015 -1.972864 -1.336172 -84.745445 -71.566165 93.672593 11.947396 -21.411365 1.268365 -14.616511 -33.964768 9.649204 13.490978 83.571441 10.435985 0.080410 -14.249196 1.952584 -0.080675 0.330505 0.031796 -17.994456 -46.819210 17.747499 166.360091 78.454010 162.852149 0.183464 -14.896378 -0.603792 -1.306548 -3.698428 -0.601931
-8.088108 53.560377 25.906692 178.253581 -31.348901 -11.943041 0.921549 13.224675 6.793070 0.222151 7.568207 2.496608 0.304243 9.400422 3.105608 0.235018 7.592856 2.506937 5.432355 22.164047 -0.888582 6.093278 -1.860034 -2.224557 -0.865948 1.149706 -2.566838 -13.493702 -6.255289 5.245315 66.943638 -79.048139 -48.784123 13.001758 -3.876962 -16.577481 -10.963846 2.845989 -3.506518 6.341950 -2.037457 -1.302171 -84.665914 -71.519709 93.596328 12.027202 -21.618686 1.523407 -14.623020 -33.925950 9.688229 13.394499 83.583744 10.332741 0.068753 -14.276074 1.962519 -0.060614 0.307898 0.012079 -17.977752 -46.759738 17.813290 166.481432 78.490074 162.903973 0.235702 -14.788041 -0.479149 -1.412481 -3.816450 -0.646913
-8.079573 53.659367 25.894732 178.264010 -31.352254 -11.963690 0.942104 13.265724 6.836224 0.222888 7.577370 2.498794 0.324754 9.454215 3.128845 0.203364 7.521105 2.482079 5.424144 22.166877 -0.893428 6.069421 -1.907396 -2.235784 -0.852957 1.129427 -2.580257 -13.460601 -6.219267 5.261128 67.223502 -78.952025 -49.064639 13.046383 -3.770164 -16.560083 -10.975903 2.837725 -3.511386 6.276046 -2.068383 -1.263407 -84.593364 -71.475549 93.565373 12.097758 -21.877090 1.766362 -14.640662 -33.916484 9.729755 13.344359 83.610552 10.261282 0.056380 -14.308991 1.975469 -0.060525 0.304109 0.004667 -17.949813 -46.717505 17.874227 166.673313 78.539760 163.040983 0.245450 -14.731991 -0.376917 -1.465279 -3.875260 -0.671591
-8.078269 53.741125 25.886083 178.288724 -31.326467 -11.953076 0.930262 13.282850 6.837218 0.224622 7.586728 2.499234 0.333748 9.481198 3.135748 0.218458 7.568733 2.494618 5.373563 22.060881 -0.933443 6.062582 -1.927084 -2.241218 -0.868221 1.014948 -2.610607 -13.441303 -6.195976 5.274438 67.463074 -78.843622 -49.291106 13.101018 -3.642448 -16.523914 -11.014270 2.737623 -3.515422 6.205965 -2.089408 -1.223770 -84.558195 -71.412550 93.575229 12.185365 -22.180277 2.024778 -14.661850 -33.957181 9.736847 13.163257 83.663897 10.049105 0.065655 -14.356863 1.990655 -0.067770 0.310376 0.005965 -17.898971 -46.704553 17.899150 166.995358 78.601263 163.315950 0.175639 -14.780603 -0.294610 -1.425371 -3.835107 -0.654677
-8.081863 53.809309 25.878968 178.303249 -31.291107 -11.916062 0.914908 13.291605 6.814040 0.220777 7.569951 2.489266 0.339016 9.502304 3.139029 0.228534 7.610088 2.499301 5.343971 22.021902 -0.953613 6.040281 -1.981656 -2.252783 -0.800226 0.951366 -2.630071 -13.516443 -6.203357 5.291476 67.552763 -78.787731 -49.368393 13.200576 -3.469266 -16.425938 -11.070758 2.780550 -3.492765 6.168749 -2.198811 -1.214478 -84.582199 -71.357100 93.639768 12.280168 -22.517656 2.288328 -14.670142 -34.027783 9.707469 13.173775 83.730617 10.042358 0.070690 -14.413986 1.991352 -0.069097 0.328600 0.014353 -17.833947 -46.715419 17.898335 167.339996 78.655691 163.608753 0.118126 -14.845236 -0.215851 -1.388445 -3.778866 -0.636711
-8.093112 53.863651 25.875963 178.335341 -31.221005 -11.853616 0.860907 13.250691 6.742639 0.223390 7.573817 2.489133 0.335440 9.492272 3.133912 0.232724 7.663563 2.502139 5.323832 22.003595 -0.968900 6.024244 -2.028548 -2.265324 -0.761175 0.895329 -2.639421 -13.499512 -6.167291 5.301809 67.771181 -78.666688 -49.584409 13.228139 -3.320221 -16.332176 -11.106746 2.777439 -3.476609 6.141366 -2.229216 -1.189739 -84.673873 -71.319766 93.759963 12.372989 -22.877853 2.540579 -14.699001 -34.150647 9.648330 13.289275 83.816904 10.129594 0.072656 -14.476785 1.994300 -0.068432 0.338775 0.014178 -17.767195 -46.769604 17.856382 167.656384 78.705856 163.884566 0.011238 -14.963541 -0.157962 -1.303404 -3.668079 -0.597327
-8.102050 53.911256 25.872799 178.345604 -31.164919 -11.806983 0.832521 13.219746 6.697830 0.229849 7.654527 2.507306 0.337623 9.449211 3.116155 0.219916 7.675629 2.500165 5.319234 21.952772 -0.984218 6.007031 -2.039668 -2.276320 -0.712681 0.844172 -2.652833 -13.460327 -6.093929 5.257632 68.003077 -78.624405 -49.832466 13.248987 -3.167124 -16.190572 -11.117200 2.738562 -3.465357 6.134544 -2.240755 -1.177551 -84.747920 -71.288613 93.835233 12.452993 -23.252917 2.766412 -14.725710 -34.257727 9.617581 13.259145 83.901771 10.078859 0.079933 -14.540500 1.983083 -0.070195 0.344860 0.011880 -17.709772 -46.809778 17.834561 167.887120 78.747836 164.097460 -0.096767 -15.077555 -0.127488 -1.211382 -3.565200 -0.551965
-8.123661 53.948660 25.871898 178.369233 -31.086438 -11.703707 0.780734 13.223110 6.608081 0.220934 7.634264 2.490969 0.339607 9.456958 3.113190 0.208236 7.692722 2.496131 5.321028 21.895117 -1.002030 5.982696 -2.056613 -2.287070 -0.656957 0.795290 -2.672632 -13.482494 -6.093567 5.253345 67.984461 -78.559326 -49.779955 13.280413 -3.007465 -15.991006 -11.154276 2.742371 -3.449790 6.167659 -2.299204 -1.178077 -84.846108 -71.257698 93.919467 12.539804 -23.629682 2.975798 -14.772103 -34.414634 9.514515 13.515473 84.009565 10.292593 0.105011 -14.601844 1.973632 -0.067520 0.356186 0.013637 -17.615925 -46.886925 17.754090 168.263398 78.797649 164.408673 -0.193317 -15.217445 -0.049804 -1.133761 -3.430525 -0.517157
-8.139139 53.986991 25.865629 178.386433 -31.063319 -11.645817 0.746743 13.215440 6.542717 0.213218 7.680949 2.499070 0.325965 9.525937 3.113557 0.211211 7.656332 2.486212 5.283981 21.874989 -1.028797 5.969831 -2.141712 -2.318180 -0.596007 0.746268 -2.698180 -13.479402 -6.063323 5.179866 68.013677 -78.569766 -49.802044 13.309885 -2.862368 -15.746617 -11.184246 2.738174 -3.436954 6.197209 -2.325411 -1.157857 -85.030752 -71.253627 94.097877 12.621918 -23.991907 3.154889 -14.791568 -34.497681 9.449760 13.212206 84.109369 9.962473 0.160054 -14.663617 1.974069 -0.061938 0.371760 0.017219 -17.557092 -46.912187 17.708216 168.577723 78.823771 164.662734 -0.213101 -15.291193 0.022197 -1.118844 -3.364440 -0.510741
-8.161724 54.019957 25.861264 178.404081 -31.031353 -11.555009 0.704211 13.232411 6.455923 0.202893 7.696548 2.495792 0.312817 9.566976 3.111398 0.207823 7.655219 2.480043 5.271802 21.822553 -1.055523 5.950097 -2.208073 -2.346167 -0.529698 0.694526 -2.730610 -13.489919 -6.038648 5.093469 68.064068 -78.588406 -49.838080 13.351037 -2.734115 -15.460199 -11.195823 2.708162 -3.428119 6.214659 -2.274502 -1.111523 -85.354235 -71.311434 94.452498 12.674962 -24.320803 3.278740 -14.792130 -34.604309 9.343450 13.152363 84.213460 9.873437 0.191960 -14.731720 1.977739 -0.060946 0.386419 0.016091 -17.470631 -46.956014 17.635885 168.996342 78.858914 164.984755 -0.205429 -15.359909 0.136042 -1.131865 -3.295538 -0.518620
-8.185511 54.049009 25.861017 178.434826 -30.979323 -11.471164 0.641923 13.268927 6.385093 0.198192 7.675508 2.477073 0.312774 9.550199 3.100575 0.185379 7.716853 2.486299 5.252606 21.776758 -1.085422 5.943284 -2.289206 -2.382323 -0.461236 0.639835 -2.771538 -13.523735 -6.030341 5.031418 68.110865 -78.637659 -49.866837 13.461436 -2.599771 -15.134766 -11.202261 2.672798 -3.421112 6.241445 -2.249848 -1.085510 -85.640064 -71.323858 94.724719 12.741203 -24.600162 3.410620 -14.801618 -34.728895 9.238136 13.261707 84.310553 9.958831 0.201459 -14.797172 1.984425 -0.059902 0.402423 0.014179 -17.396850 -47.008083 17.578497 169.380689 78.898572 165.289347 -0.298313 -15.488082 0.222512 -1.067168 -3.171995 -0.486785
-8.210671 54.076381 25.862566 178.493257 -30.921446 -11.396950 0.555265 13.258621 6.295369 0.189158 7.697318 2.474495 0.295580 9.599154 3.100626 0.182850 7.717516 2.479221 5.249334 21.707411 -1.116745 5.939524 -2.340539 -2.405459 -0.399217 0.580925 -2.818918 -13.563041 -6.025819 4.976257 68.222832 -78.580592 -49.929756 13.521287 -2.548582 -14.863046 -11.208867 2.637108 -3.413950 6.262581 -2.239915 -1.070925 -85.872002 -71.316243 94.911889 12.805941 -24.850439 3.556140 -14.834331 -34.850774 9.127898 13.586997 84.398932 10.255372 0.189342 -14.863671 1.994507 -0.059164 0.419717 0.010489 -17.311612 -47.045235 17.522273 169.838293 78.965835 165.680505 -0.487514 -15.686628 0.302505 -0.923686 -2.976700 -0.419796
